<svg width="28" height="18" viewBox="0 0 28 18" fill="none" xmlns="http://www.w3.org/2000/svg">
<path d="M14 0C15.083 0 16.1216 0.457758 16.8874 1.27257C17.6531 2.08738 18.0833 3.19251 18.0833 4.34483C18.0833 5.49715 17.6531 6.60227 16.8874 7.41708C16.1216 8.2319 15.083 8.68966 14 8.68966C12.917 8.68966 11.8784 8.2319 11.1126 7.41708C10.3469 6.60227 9.91667 5.49715 9.91667 4.34483C9.91667 3.19251 10.3469 2.08738 11.1126 1.27257C11.8784 0.457758 12.917 0 14 0ZM5.83333 3.10345C6.48667 3.10345 7.09333 3.28966 7.61833 3.62483C7.44333 5.4 7.93333 7.16276 8.93667 8.54069C8.35333 9.73241 7.18667 10.5517 5.83333 10.5517C4.90508 10.5517 4.01484 10.1594 3.35846 9.46095C2.70208 8.76254 2.33333 7.81529 2.33333 6.82759C2.33333 5.83988 2.70208 4.89263 3.35846 4.19422C4.01484 3.49581 4.90508 3.10345 5.83333 3.10345ZM22.1667 3.10345C23.0949 3.10345 23.9852 3.49581 24.6415 4.19422C25.2979 4.89263 25.6667 5.83988 25.6667 6.82759C25.6667 7.81529 25.2979 8.76254 24.6415 9.46095C23.9852 10.1594 23.0949 10.5517 22.1667 10.5517C20.8133 10.5517 19.6467 9.73241 19.0633 8.54069C20.0667 7.16276 20.5567 5.4 20.3817 3.62483C20.9067 3.28966 21.5133 3.10345 22.1667 3.10345ZM6.41667 15.8276C6.41667 13.2579 9.81167 11.1724 14 11.1724C18.1883 11.1724 21.5833 13.2579 21.5833 15.8276V18H6.41667V15.8276ZM0 18V16.1379C0 14.4124 2.205 12.96 5.19167 12.5379C4.50333 13.3821 4.08333 14.549 4.08333 15.8276V18H0ZM28 18H23.9167V15.8276C23.9167 14.549 23.4967 13.3821 22.8083 12.5379C25.795 12.96 28 14.4124 28 16.1379V18Z" fill="white"/>
</svg>
